<?xml version="1.0" encoding="iso-8859-1"?>
<!-- Uploaded to: SVG Repo, www.svgrepo.com, Generator: SVG Repo Mixer Tools -->
<svg height="800px" width="800px" version="1.1" id="Layer_1" xmlns="http://www.w3.org/2000/svg" xmlns:xlink="http://www.w3.org/1999/xlink" 
	 viewBox="0 0 512.002 512.002" xml:space="preserve">
<g>
	<path style="fill:#507C5C;" d="M468.218,512.001c-7.487,0-13.557-6.071-13.557-13.557s6.069-13.557,13.557-13.557
		c10.267,0,14.305-7.824,15.297-10.222c0.994-2.398,3.67-10.786-3.59-18.045L55.381,32.076c-7.258-7.26-15.647-4.585-18.045-3.588
		c-2.398,0.992-10.222,5.03-10.222,15.296v424.545c0,9.129,7.428,16.558,16.558,16.558h292.665c7.487,0,13.557,6.071,13.557,13.557
		s-6.069,13.557-13.557,13.557H43.672C19.591,512.001,0,492.41,0,468.33V43.783C0,25.784,10.33,10.324,26.959,3.436
		c16.63-6.887,34.867-3.26,47.594,9.467l424.545,424.545c12.727,12.728,16.355,30.965,9.467,47.594
		C501.678,501.67,486.216,512.001,468.218,512.001z"/>
	<path style="fill:#507C5C;" d="M282.705,438.336H87.222c-3.595,0-7.044-1.429-9.586-3.971c-2.542-2.543-3.971-5.991-3.971-9.586
		l0.001-195.482c0-7.486,6.071-13.557,13.557-13.557l0,0c7.487,0,13.557,6.071,13.557,13.557l-0.001,181.925h181.926
		c7.487,0,13.557,6.071,13.557,13.557S290.192,438.336,282.705,438.336z"/>
</g>
<path style="fill:#CFF09E;" d="M13.557,75.258l423.186,423.186h31.475c26.83,0,40.266-32.439,21.295-51.41L64.967,22.49
	c-18.971-18.973-51.41-5.535-51.41,21.294V75.258z"/>
<g>
	<path style="fill:#507C5C;" d="M468.217,512.001h-31.475c-3.595,0-7.044-1.429-9.586-3.971L3.971,84.846
		C1.429,82.302,0,78.855,0,75.258V43.783C0,19.669,19.689,0.052,43.89,0.052c11.487,0,22.375,4.563,30.664,12.85l424.545,424.545
		c12.727,12.728,16.355,30.965,9.467,47.592C501.677,501.67,486.216,512.001,468.217,512.001z M442.358,484.887h25.86
		c10.267,0,14.305-7.824,15.299-10.222c0.994-2.398,3.67-10.786-3.59-18.045L55.381,32.076c-4.058-4.059-8.489-4.91-11.491-4.91
		c-8.247,0-16.777,6.216-16.777,16.618v25.858L442.358,484.887z"/>
	<path style="fill:#507C5C;" d="M414.554,432.981c-3.469,0-6.94-1.324-9.586-3.971c-5.294-5.294-5.294-13.878,0-19.173
		l22.243-22.243c5.294-5.293,13.878-5.293,19.173,0c5.294,5.294,5.294,13.878,0,19.173l-22.243,22.243
		C421.492,431.658,418.023,432.981,414.554,432.981z"/>
	<path style="fill:#507C5C;" d="M350.158,368.585c-3.471,0-6.938-1.324-9.586-3.971c-5.294-5.294-5.294-13.878,0-19.173
		l22.244-22.243c5.294-5.293,13.878-5.29,19.172,0c5.294,5.294,5.294,13.878,0,19.173l-22.244,22.243
		C357.098,367.262,353.627,368.585,350.158,368.585z"/>
	<path style="fill:#507C5C;" d="M285.763,304.19c-3.471,0-6.938-1.324-9.586-3.971c-5.294-5.294-5.294-13.878,0-19.173
		l22.244-22.243c5.294-5.291,13.877-5.291,19.172,0c5.294,5.294,5.294,13.878,0,19.173l-22.244,22.243
		C292.702,302.867,289.232,304.19,285.763,304.19z"/>
	<path style="fill:#507C5C;" d="M221.367,239.795c-3.469,0-6.938-1.325-9.586-3.971c-5.294-5.294-5.295-13.878,0-19.173
		l22.244-22.244c5.294-5.293,13.878-5.293,19.172,0c5.294,5.294,5.295,13.878,0,19.173l-22.244,22.244
		C228.307,238.472,224.836,239.795,221.367,239.795z"/>
	<path style="fill:#507C5C;" d="M156.973,175.399c-3.471,0-6.938-1.325-9.586-3.971c-5.294-5.294-5.294-13.878,0-19.173
		l22.244-22.243c5.294-5.293,13.878-5.29,19.172,0c5.294,5.294,5.294,13.878,0,19.173l-22.244,22.243
		C163.911,174.076,160.442,175.399,156.973,175.399z"/>
	<path style="fill:#507C5C;" d="M92.576,111.005c-3.469,0-6.938-1.324-9.586-3.971c-5.294-5.294-5.295-13.878,0-19.173
		l22.244-22.244c5.294-5.293,13.878-5.293,19.172,0c5.294,5.294,5.295,13.878,0,19.173l-22.244,22.245
		C99.516,109.682,96.046,111.005,92.576,111.005z"/>
</g>
</svg>