<?xml version="1.0" encoding="iso-8859-1"?>
<!-- Uploaded to: SVG Repo, www.svgrepo.com, Generator: SVG Repo Mixer Tools -->
<svg height="800px" width="800px" version="1.1" id="Layer_1" xmlns="http://www.w3.org/2000/svg" xmlns:xlink="http://www.w3.org/1999/xlink" 
	 viewBox="0 0 490 490" xml:space="preserve">
<g>
	<g id="XMLID_35_">
		<g>
			<path style="fill:#FFD248;" d="M437.5,160v330h-185v-90h-120c-55,0-10-35-40-80h-40l20-100v-60c0-80,67.16-150,150-150h65
				C370.34,10,437.5,77.16,437.5,160z"/>
		</g>
		<g>
			<g>
				<path d="M447.5,490h-20V160c0-77.196-62.804-140-140-140h-65c-75.888,0-140,64.112-140,140v60c0,0.658-0.065,1.315-0.194,1.961
					L64.698,310H92.5c3.344,0,6.466,1.671,8.32,4.453c14.986,22.479,13.622,42.645,12.625,57.369
					c-0.434,6.411-0.882,13.04,0.831,14.872c0.725,0.775,4.181,3.306,18.224,3.306h120c5.522,0,10,4.478,10,10v90h-20v-80h-110
					c-16.472,0-26.599-2.976-32.836-9.649c-7.642-8.176-6.895-19.209-6.173-29.878c0.813-12,1.724-25.457-6.596-40.473H52.5
					c-2.996,0-5.834-1.343-7.733-3.66c-1.899-2.316-2.66-5.363-2.072-8.301L62.5,219.01V160c0-41.051,17.065-81.882,46.818-112.025
					C139.856,17.038,180.052,0,222.5,0h65c88.225,0,160,71.775,160,160V490z"/>
			</g>
		</g>
	</g>
	<polygon points="297.5,130 267.5,130 267.5,100 247.5,100 247.5,130 217.5,130 217.5,150 247.5,150 247.5,180 267.5,180 267.5,150 
		297.5,150 	"/>
	<g>
		<path d="M342.5,180h-20v-55h-20v-20h30c5.522,0,10,4.478,10,10V180z"/>
	</g>
	<g>
		<path d="M202.5,180h-20v-55h-20v-20h30c5.523,0,10,4.478,10,10V180z"/>
	</g>
</g>
</svg>